<svg xmlns="http://www.w3.org/2000/svg" viewBox="0 0 400 400">
  <defs>
    <linearGradient id="bg" x1="0" y1="0" x2="1" y2="1">
      <stop offset="0" stop-color="#edf1fb"/>
      <stop offset="1" stop-color="#ccd6ef"/>
    </linearGradient>
    <linearGradient id="rope" x1="0" y1="0" x2="0" y2="1">
      <stop offset="0" stop-color="#5d74b5"/>
      <stop offset="1" stop-color="#3d4f82"/>
    </linearGradient>
  </defs>
  <rect width="400" height="400" fill="url(#bg)"/>
  <rect x="44" y="44" width="312" height="312" rx="34" fill="#ffffff" opacity="0.5"/>
  <ellipse cx="204" cy="330" rx="116" ry="16" fill="#33406a" opacity="0.2"/>
  <g>
    <circle cx="204" cy="206" r="74" fill="none" stroke="url(#rope)" stroke-width="28"/>
    <circle cx="204" cy="206" r="88" fill="none" stroke="#26334d" stroke-width="6"/>
    <ellipse cx="204" cy="206" rx="78" ry="16" fill="none" stroke="#b9c6e4" stroke-width="10" transform="rotate(-28 204 206)"/>
  </g>
  <g>
    <rect x="150" y="164" width="18" height="84" rx="9" fill="#26334d"/>
    <rect x="236" y="164" width="18" height="84" rx="9" fill="#26334d"/>
  </g>
  <g transform="rotate(45 204 206)">
    <rect x="196" y="96" width="16" height="34" rx="8" fill="url(#rope)"/>
    <circle cx="204" cy="92" r="12" fill="none" stroke="#3d4f82" stroke-width="7"/>
  </g>
  <g fill="#3d4f82" opacity="0.18">
    <ellipse cx="92" cy="116" rx="7" ry="9" transform="rotate(-25 92 116)"/>
    <circle cx="82" cy="103" r="3"/>
    <circle cx="93" cy="100" r="3"/>
    <circle cx="103" cy="104" r="3"/>
    <circle cx="88" cy="94" r="3"/>
    <ellipse cx="316" cy="116" rx="7" ry="9" transform="rotate(30 316 116)"/>
    <circle cx="326" cy="104" r="3"/>
    <circle cx="315" cy="101" r="3"/>
    <circle cx="305" cy="104" r="3"/>
    <circle cx="310" cy="112" r="3"/>
  </g>
  <path d="M120 296 q12 9 0 18 q-12 -9 0 -18" fill="#5d74b5" opacity="0.5"/>
  <path d="M292 288 q12 9 0 18 q-12 -9 0 -18" fill="#5d74b5" opacity="0.5"/>
</svg>