<svg xmlns="http://www.w3.org/2000/svg" viewBox="0 0 400 400">
  <defs>
    <linearGradient id="bg" x1="0" y1="0" x2="1" y2="1">
      <stop offset="0" stop-color="#fff4e6"/>
      <stop offset="1" stop-color="#ffd3a3"/>
    </linearGradient>
    <linearGradient id="bag" x1="0" y1="0" x2="0" y2="1">
      <stop offset="0" stop-color="#ff8a4c"/>
      <stop offset="1" stop-color="#ed5722"/>
    </linearGradient>
  </defs>
  <rect width="400" height="400" fill="url(#bg)"/>
  <rect x="44" y="44" width="312" height="312" rx="34" fill="#ffffff" opacity="0.5"/>
  <ellipse cx="210" cy="330" rx="118" ry="18" fill="#c94f18" opacity="0.22"/>
  <g>
    <path d="M118 332 L118 178 C118 166 128 158 140 158 L260 158 C272 158 282 166 282 178 L282 332 C282 338 277 340 271 340 L129 340 C123 340 118 338 118 332 Z" fill="url(#bag)"/>
    <path d="M140 158 L200 126 L260 158 Z" fill="#b8380c"/>
    <line x1="200" y1="126" x2="200" y2="158" stroke="#e8561f" stroke-width="3"/>
    <rect x="172" y="184" width="56" height="98" rx="12" fill="#fff3e6"/>
    <path d="M185 178 l-5 -13 m20 13 l5 -13" stroke="#b8380c" stroke-width="4" stroke-linecap="round"/>
    <circle cx="200" cy="206" r="17" fill="#a05a2c"/>
    <ellipse cx="200" cy="216" rx="11" ry="8" fill="#5d3a1a"/>
    <circle cx="194" cy="204" r="2.4" fill="#fff6ee"/>
    <circle cx="206" cy="204" r="2.4" fill="#fff6ee"/>
    <path d="M200 218 q4 4 0 8 q-4 -4 0 -8" fill="#fff6ee"/>
    <circle cx="200" cy="224" r="3.2" fill="#3a2411"/>
    <text x="200" y="266" font-size="15" font-family="Arial, sans-serif" font-weight="bold" fill="#c23e10" text-anchor="middle">DOG</text>
    <text x="200" y="282" font-size="15" font-family="Arial, sans-serif" font-weight="bold" fill="#c23e10" text-anchor="middle">FOOD</text>
  </g>
  <g fill="#d98528" opacity="0.95">
    <rect x="110" y="296" width="19" height="19" rx="6" transform="rotate(40 119 305)"/>
    <rect x="96" y="266" width="14" height="14" rx="4.5" transform="rotate(-24 103 273)"/>
    <rect x="120" y="250" width="14" height="14" rx="4.5" transform="rotate(62 127 257)"/>
    <rect x="288" y="290" width="17" height="17" rx="5.5" transform="rotate(-35 296 298)"/>
    <rect x="292" y="252" width="13" height="13" rx="4" transform="rotate(12 298 258)"/>
  </g>
  <g fill="#e8561f" opacity="0.16">
    <ellipse cx="92" cy="118" rx="7" ry="9" transform="rotate(-25 92 118)"/>
    <circle cx="82" cy="105" r="3"/>
    <circle cx="93" cy="102" r="3"/>
    <circle cx="103" cy="106" r="3"/>
    <circle cx="88" cy="96" r="3"/>
    <ellipse cx="316" cy="112" rx="7" ry="9" transform="rotate(30 316 112)"/>
    <circle cx="326" cy="100" r="3"/>
    <circle cx="315" cy="97" r="3"/>
    <circle cx="305" cy="100" r="3"/>
    <circle cx="310" cy="108" r="3"/>
  </g>
  <circle cx="78" cy="176" r="5" fill="#ffc98a" opacity="0.6"/>
  <circle cx="90" cy="160" r="3" fill="#ffc98a" opacity="0.6"/>
  <circle cx="316" cy="196" r="5" fill="#ffc98a" opacity="0.6"/>
  <circle cx="304" cy="210" r="3" fill="#ffc98a" opacity="0.6"/>
</svg>